<svg width="36" height="36" viewBox="0 0 36 36" fill="none" xmlns="http://www.w3.org/2000/svg">
<path d="M29.835 14.325C29.7103 14.0776 29.5196 13.8696 29.284 13.724C29.0483 13.5784 28.777 13.5008 28.5 13.5H21V4.5C21.0161 4.17103 20.9234 3.8459 20.7364 3.5748C20.5493 3.30371 20.2782 3.10171 19.965 3C19.6638 2.90092 19.339 2.8998 19.0372 2.99682C18.7353 3.09384 18.472 3.284 18.285 3.54L6.28498 20.04C6.13462 20.2573 6.04434 20.5105 6.02327 20.7739C6.0022 21.0373 6.05108 21.3016 6.16498 21.54C6.26986 21.8126 6.45206 22.0487 6.68921 22.2192C6.92636 22.3898 7.20815 22.4874 7.49998 22.5H15V31.5C15.0002 31.8163 15.1004 32.1245 15.2863 32.3804C15.4722 32.6363 15.7342 32.8269 16.035 32.925C16.1857 32.9717 16.3422 32.997 16.5 33C16.7367 33.0006 16.9701 32.9452 17.1813 32.8383C17.3925 32.7314 17.5753 32.5761 17.715 32.385L29.715 15.885C29.8766 15.6612 29.9733 15.3971 29.9945 15.1219C30.0157 14.8466 29.9605 14.5709 29.835 14.325V14.325ZM18 26.88V21C18 20.6022 17.8419 20.2206 17.5606 19.9393C17.2793 19.658 16.8978 19.5 16.5 19.5H10.5L18 9.12V15C18 15.3978 18.158 15.7794 18.4393 16.0607C18.7206 16.342 19.1022 16.5 19.5 16.5H25.5L18 26.88Z" fill="white"/>
</svg>
