<svg width="26" height="26" viewBox="0 0 20 20" fill="none" xmlns="http://www.w3.org/2000/svg">
<path d="M17.5583 14.025L15.8333 12.2583C15.4623 11.9056 14.9942 11.6719 14.4893 11.5873C13.9844 11.5027 13.4658 11.5709 13 11.7833L12.25 11.0333C13.1338 9.85244 13.5374 8.38058 13.3796 6.91404C13.2218 5.44751 12.5143 4.0952 11.3995 3.12935C10.2847 2.16349 8.84542 1.65581 7.37136 1.7085C5.8973 1.76119 4.49793 2.37034 3.45495 3.41332C2.41196 4.4563 1.80281 5.85567 1.75013 7.32973C1.69744 8.80379 2.20512 10.2431 3.17097 11.3579C4.13683 12.4727 5.48913 13.1802 6.95567 13.338C8.4222 13.4958 9.89407 13.0921 11.075 12.2083L11.8166 12.95C11.5792 13.4164 11.4941 13.9455 11.5734 14.4628C11.6526 14.9801 11.8922 15.4594 12.2583 15.8333L14.025 17.6C14.4937 18.0682 15.1291 18.3311 15.7916 18.3311C16.4541 18.3311 17.0896 18.0682 17.5583 17.6C17.7964 17.3672 17.9856 17.0891 18.1148 16.7822C18.244 16.4752 18.3105 16.1455 18.3105 15.8125C18.3105 15.4795 18.244 15.1498 18.1148 14.8429C17.9856 14.5359 17.7964 14.2578 17.5583 14.025ZM10.4916 10.4917C9.9085 11.0733 9.16606 11.4691 8.35809 11.6291C7.55012 11.789 6.71288 11.7058 5.95214 11.3902C5.19139 11.0745 4.54127 10.5404 4.0839 9.85546C3.62652 9.17048 3.38242 8.36532 3.38242 7.54168C3.38242 6.71804 3.62652 5.91287 4.0839 5.2279C4.54127 4.54292 5.19139 4.00886 5.95214 3.69319C6.71288 3.37752 7.55012 3.29439 8.35809 3.4543C9.16606 3.61422 9.9085 4.01001 10.4916 4.59168C10.8797 4.97873 11.1875 5.43852 11.3976 5.94473C11.6076 6.45094 11.7158 6.99362 11.7158 7.54168C11.7158 8.08974 11.6076 8.63242 11.3976 9.13863C11.1875 9.64484 10.8797 10.1046 10.4916 10.4917ZM16.3833 16.3833C16.3058 16.4615 16.2137 16.5234 16.1121 16.5658C16.0106 16.6081 15.9016 16.6298 15.7916 16.6298C15.6816 16.6298 15.5727 16.6081 15.4712 16.5658C15.3696 16.5234 15.2774 16.4615 15.2 16.3833L13.4333 14.6167C13.3552 14.5392 13.2932 14.447 13.2509 14.3455C13.2086 14.2439 13.1868 14.135 13.1868 14.025C13.1868 13.915 13.2086 13.8061 13.2509 13.7045C13.2932 13.603 13.3552 13.5108 13.4333 13.4333C13.5108 13.3552 13.6029 13.2932 13.7045 13.2509C13.806 13.2086 13.915 13.1868 14.025 13.1868C14.135 13.1868 14.2439 13.2086 14.3455 13.2509C14.447 13.2932 14.5392 13.3552 14.6166 13.4333L16.3833 15.2C16.4614 15.2775 16.5234 15.3696 16.5657 15.4712C16.608 15.5727 16.6298 15.6817 16.6298 15.7917C16.6298 15.9017 16.608 16.0106 16.5657 16.1122C16.5234 16.2137 16.4614 16.3059 16.3833 16.3833Z" fill="white"/>
</svg>
