<svg width="36" height="36" viewBox="0 0 36 36" fill="none" xmlns="http://www.w3.org/2000/svg">
<path d="M11.25 22.5C10.8522 22.5 10.4707 22.658 10.1893 22.9393C9.90804 23.2206 9.75001 23.6022 9.75001 24V25.5C9.75001 25.8978 9.90804 26.2794 10.1893 26.5607C10.4707 26.842 10.8522 27 11.25 27C11.6478 27 12.0294 26.842 12.3107 26.5607C12.592 26.2794 12.75 25.8978 12.75 25.5V24C12.75 23.6022 12.592 23.2206 12.3107 22.9393C12.0294 22.658 11.6478 22.5 11.25 22.5ZM33 10.5H31.35C31.1501 9.56027 30.7789 8.66537 30.255 7.86L31.5 6.705C31.6399 6.56514 31.7508 6.39911 31.8265 6.21637C31.9022 6.03364 31.9411 5.83779 31.9411 5.64C31.9411 5.44221 31.9022 5.24636 31.8265 5.06363C31.7508 4.88089 31.6399 4.71486 31.5 4.575C31.3602 4.43514 31.1941 4.3242 31.0114 4.24851C30.8287 4.17282 30.6328 4.13386 30.435 4.13386C30.2372 4.13386 30.0414 4.17282 29.8586 4.24851C29.6759 4.3242 29.5099 4.43514 29.37 4.575L28.215 5.745C27.3907 5.2052 26.4681 4.83312 25.5 4.65V3C25.5 2.60218 25.342 2.22064 25.0607 1.93934C24.7794 1.65804 24.3978 1.5 24 1.5C23.6022 1.5 23.2207 1.65804 22.9393 1.93934C22.658 2.22064 22.5 2.60218 22.5 3V4.65C21.5603 4.84994 20.6654 5.22112 19.86 5.745L18.705 4.575C18.5652 4.43514 18.3991 4.3242 18.2164 4.24851C18.0336 4.17282 17.8378 4.13386 17.64 4.13386C17.4422 4.13386 17.2464 4.17282 17.0636 4.24851C16.8809 4.3242 16.7149 4.43514 16.575 4.575C16.2926 4.85746 16.1339 5.24055 16.1339 5.64C16.1339 6.03945 16.2926 6.42254 16.575 6.705L17.745 7.86C17.1502 8.76606 16.7564 9.789 16.59 10.86C15.8302 10.6332 15.0428 10.5121 14.25 10.5C12.0883 10.4988 9.99835 11.2757 8.36232 12.6886C6.72628 14.1015 5.65346 16.0561 5.34001 18.195C4.29546 18.4859 3.36659 19.093 2.68101 19.9331C1.99542 20.7731 1.58675 21.8048 1.51114 22.8864C1.43552 23.9681 1.69667 25.0466 2.2587 25.9739C2.82074 26.9011 3.65609 27.6316 4.65001 28.065C4.84117 28.1407 5.04442 28.1814 5.25001 28.185C5.5968 28.1878 5.93386 28.0704 6.20383 27.8527C6.47379 27.635 6.65999 27.3305 6.73072 26.991C6.80145 26.6515 6.75235 26.2979 6.59178 25.9905C6.43121 25.6831 6.16908 25.4409 5.85001 25.305C5.44755 25.1336 5.10471 24.8471 4.86453 24.4815C4.62435 24.1159 4.49753 23.6874 4.50001 23.25C4.50001 22.6533 4.73706 22.081 5.15902 21.659C5.58097 21.2371 6.15327 21 6.75001 21C7.14783 21 7.52936 20.842 7.81067 20.5607C8.09197 20.2794 8.25001 19.8978 8.25001 19.5C8.25644 18.0835 8.76379 16.715 9.68227 15.6367C10.6007 14.5584 11.8711 13.8398 13.2685 13.6081C14.6659 13.3764 16.1002 13.6465 17.3175 14.3707C18.5349 15.0949 19.4568 16.2264 19.92 17.565C20.0057 17.8228 20.1599 18.0524 20.3659 18.2294C20.572 18.4064 20.8223 18.5241 21.09 18.57C21.7867 18.6732 22.4357 18.9853 22.9512 19.4652C23.4668 19.945 23.8246 20.57 23.9773 21.2575C24.1301 21.9451 24.0707 22.6628 23.8069 23.3158C23.5431 23.9688 23.0874 24.5265 22.5 24.915C22.3345 25.0233 22.192 25.1632 22.0806 25.3266C21.9692 25.49 21.8911 25.6738 21.8507 25.8674C21.8103 26.061 21.8084 26.2607 21.8452 26.455C21.882 26.6494 21.9567 26.8345 22.065 27C22.2838 27.3342 22.6264 27.5677 23.0174 27.6493C23.211 27.6897 23.4107 27.6916 23.605 27.6548C23.7994 27.618 23.9845 27.5433 24.15 27.435C25.0346 26.8337 25.7574 26.0237 26.2544 25.0766C26.7515 24.1295 27.0076 23.0746 27 22.005C26.9953 21.0064 26.7645 20.0217 26.325 19.125C26.9652 18.9151 27.5754 18.6226 28.14 18.255L29.295 19.425C29.4302 19.5821 29.5965 19.7096 29.7835 19.7992C29.9704 19.8888 30.1739 19.9388 30.3811 19.9458C30.5883 19.9529 30.7947 19.9169 30.9873 19.8401C31.1798 19.7634 31.3544 19.6476 31.5 19.5C31.6406 19.3606 31.7522 19.1947 31.8283 19.0119C31.9045 18.8291 31.9437 18.633 31.9437 18.435C31.9437 18.237 31.9045 18.0409 31.8283 17.8581C31.7522 17.6753 31.6406 17.5094 31.5 17.37L30.33 16.215C30.8434 15.385 31.1899 14.4627 31.35 13.5H33C33.3978 13.5 33.7794 13.342 34.0607 13.0607C34.342 12.7794 34.5 12.3978 34.5 12C34.5 11.6022 34.342 11.2206 34.0607 10.9393C33.7794 10.658 33.3978 10.5 33 10.5ZM27.195 15.18C26.7758 15.5998 26.2776 15.9325 25.7293 16.159C25.181 16.3856 24.5933 16.5015 24 16.5H23.91C23.4431 16.2039 22.9386 15.9719 22.41 15.81C21.7453 14.3744 20.7097 13.142 19.41 12.24C19.41 12.15 19.41 12.09 19.41 12C19.4071 10.8091 19.8764 9.66555 20.715 8.82C21.5776 8.00785 22.7177 7.55561 23.9025 7.55561C25.0873 7.55561 26.2274 8.00785 27.09 8.82C27.5095 9.23807 27.8424 9.73483 28.0695 10.2818C28.2966 10.8288 28.4136 11.4152 28.4136 12.0075C28.4136 12.5998 28.2966 13.1862 28.0695 13.7332C27.8424 14.2802 27.5095 14.7769 27.09 15.195L27.195 15.18ZM11.25 30C10.8522 30 10.4707 30.158 10.1893 30.4393C9.90804 30.7206 9.75001 31.1022 9.75001 31.5V33C9.75001 33.3978 9.90804 33.7794 10.1893 34.0607C10.4707 34.342 10.8522 34.5 11.25 34.5C11.6478 34.5 12.0294 34.342 12.3107 34.0607C12.592 33.7794 12.75 33.3978 12.75 33V31.5C12.75 31.1022 12.592 30.7206 12.3107 30.4393C12.0294 30.158 11.6478 30 11.25 30ZM17.25 28.5C16.8522 28.5 16.4707 28.658 16.1893 28.9393C15.908 29.2206 15.75 29.6022 15.75 30V31.5C15.75 31.8978 15.908 32.2794 16.1893 32.5607C16.4707 32.842 16.8522 33 17.25 33C17.6478 33 18.0294 32.842 18.3107 32.5607C18.592 32.2794 18.75 31.8978 18.75 31.5V30C18.75 29.6022 18.592 29.2206 18.3107 28.9393C18.0294 28.658 17.6478 28.5 17.25 28.5ZM17.25 21C16.8522 21 16.4707 21.158 16.1893 21.4393C15.908 21.7206 15.75 22.1022 15.75 22.5V24C15.75 24.3978 15.908 24.7794 16.1893 25.0607C16.4707 25.342 16.8522 25.5 17.25 25.5C17.6478 25.5 18.0294 25.342 18.3107 25.0607C18.592 24.7794 18.75 24.3978 18.75 24V22.5C18.75 22.1022 18.592 21.7206 18.3107 21.4393C18.0294 21.158 17.6478 21 17.25 21Z" fill="white"/>
</svg>
