<svg width="32" height="32" viewBox="0 0 32 32" fill="none" xmlns="http://www.w3.org/2000/svg">
<path d="M27.2267 5.49334C27.0914 5.16754 26.8325 4.90864 26.5067 4.77334C26.3464 4.70502 26.1742 4.66878 26 4.66667H20.6667C20.313 4.66667 19.9739 4.80715 19.7239 5.0572C19.4738 5.30724 19.3333 5.64638 19.3333 6.00001C19.3333 6.35363 19.4738 6.69277 19.7239 6.94281C19.9739 7.19286 20.313 7.33334 20.6667 7.33334H22.7867L19.5867 10.5333C17.6972 9.11927 15.3422 8.47347 12.9958 8.72595C10.6493 8.97843 8.48563 10.1104 6.94027 11.8941C5.3949 13.6778 4.58261 15.9806 4.66691 18.3391C4.75122 20.6976 5.72585 22.9366 7.39462 24.6054C9.0634 26.2742 11.3024 27.2488 13.6609 27.3331C16.0194 27.4174 18.3222 26.6051 20.1059 25.0597C21.8896 23.5144 23.0216 21.3507 23.2741 19.0042C23.5265 16.6578 22.8807 14.3028 21.4667 12.4133L24.6667 9.21334V11.3333C24.6667 11.687 24.8071 12.0261 25.0572 12.2761C25.3072 12.5262 25.6464 12.6667 26 12.6667C26.3536 12.6667 26.6928 12.5262 26.9428 12.2761C27.1929 12.0261 27.3333 11.687 27.3333 11.3333V6.00001C27.3312 5.82577 27.295 5.65363 27.2267 5.49334V5.49334ZM18.6667 22.6667C17.7397 23.6124 16.5521 24.2606 15.2553 24.5286C13.9585 24.7967 12.6113 24.6725 11.3853 24.1719C10.1594 23.6712 9.11031 22.8169 8.37186 21.7177C7.63341 20.6184 7.23905 19.3242 7.23905 18C7.23905 16.6758 7.63341 15.3816 8.37186 14.2824C9.11031 13.1831 10.1594 12.3288 11.3853 11.8281C12.6113 11.3275 13.9585 11.2033 15.2553 11.4714C16.5521 11.7395 17.7397 12.3877 18.6667 13.3333V13.3333C19.8882 14.5795 20.5724 16.255 20.5724 18C20.5724 19.745 19.8882 21.4205 18.6667 22.6667V22.6667Z" fill="white"/>
</svg>
